<?xml version="1.0" standalone="no"?><!-- Generator: Gravit.io --><svg xmlns="http://www.w3.org/2000/svg" xmlns:xlink="http://www.w3.org/1999/xlink" style="isolation:isolate" viewBox="220 -1365 35 35" width="35" height="35"><g id="Facebook"><path d=" M 220 -1347.5 C 220 -1357.159 227.841 -1365 237.5 -1365 C 247.159 -1365 255 -1357.159 255 -1347.5 C 255 -1337.841 247.159 -1330 237.5 -1330 C 227.841 -1330 220 -1337.841 220 -1347.5 Z " fill="rgb(60,90,152)"/><path d=" M 238.865 -1336.71 L 238.865 -1346.54 L 242.217 -1346.54 L 242.71 -1350.455 L 238.863 -1350.455 L 238.863 -1352.848 C 238.863 -1353.957 239.226 -1354.712 240.815 -1354.712 L 242.779 -1354.712 L 242.779 -1358.139 C 241.819 -1358.244 240.853 -1358.295 239.887 -1358.29 C 236.963 -1358.29 234.944 -1356.505 234.944 -1353.227 L 234.932 -1350.473 L 231 -1350.473 L 231 -1346.54 L 234.932 -1346.54 L 234.932 -1336.71 L 238.865 -1336.71 Z " fill="rgb(255,255,255)"/></g></svg>