<?xml version="1.0" standalone="no"?><!-- Generator: Gravit.io --><svg xmlns="http://www.w3.org/2000/svg" xmlns:xlink="http://www.w3.org/1999/xlink" style="isolation:isolate" viewBox="260 -1365 35 35" width="35" height="35"><g id="Pinterest"><path d=" M 260 -1347.5 C 260 -1357.159 267.841 -1365 277.5 -1365 C 287.159 -1365 295 -1357.159 295 -1347.5 C 295 -1337.841 287.159 -1330 277.5 -1330 C 267.841 -1330 260 -1337.841 260 -1347.5 Z " fill="rgb(211,47,47)"/><path d=" M 271.101 -1331.224 C 271.073 -1331.823 271.077 -1334.918 273.232 -1344.164 C 273.52 -1347.248 273.119 -1348.343 273.119 -1349.625 C 273.119 -1352.533 274.63 -1353.144 275.512 -1353.144 C 276.771 -1353.144 278.508 -1352.663 278.508 -1350.636 C 278.508 -1348.314 276.614 -1347.704 276.614 -1347.704 C 276.614 -1347.704 276.478 -1347.109 276.321 -1345.46 C 276.164 -1343.807 276.824 -1342.019 279.52 -1342.019 C 283.844 -1342.019 284.51 -1348.019 284.51 -1349.669 C 284.51 -1351.951 282.839 -1356.582 277.648 -1356.582 C 270.727 -1356.582 269.536 -1350.379 269.536 -1348.726 C 269.536 -1348.019 269.731 -1346.771 269.864 -1346.236 C 271.171 -1346.025 271.036 -1344.236 270.478 -1343.726 C 269.856 -1343.169 266.663 -1342.503 266.663 -1349.512 C 266.663 -1356.186 272.612 -1359.627 277.833 -1359.627 C 282.803 -1359.627 288.218 -1356.196 288.218 -1349.589 C 288.218 -1343.692 283.978 -1339.049 279.524 -1339.049 C 276.852 -1339.049 275.434 -1341.252 275.434 -1341.252 C 275.434 -1339.19 271.646 -1332.103 271.161 -1331.202" fill="rgb(255,255,255)"/></g></svg>