<?xml version="1.0" standalone="no"?><!-- Generator: Gravit.io --><svg xmlns="http://www.w3.org/2000/svg" xmlns:xlink="http://www.w3.org/1999/xlink" style="isolation:isolate" viewBox="302.5 -1365 35 35" width="35" height="35"><g id="Twitter"><path d=" M 302.5 -1347.5 C 302.5 -1357.159 310.341 -1365 320 -1365 C 329.659 -1365 337.5 -1357.159 337.5 -1347.5 C 337.5 -1337.841 329.659 -1330 320 -1330 C 310.341 -1330 302.5 -1337.841 302.5 -1347.5 Z " fill="rgb(0,172,237)"/><path d=" M 330 -1353.701 C 329.269 -1353.374 328.493 -1353.158 327.697 -1353.061 L 327.69 -1353.075 C 328.533 -1353.582 329.159 -1354.384 329.447 -1355.325 C 328.642 -1354.847 327.76 -1354.51 326.841 -1354.328 C 325.571 -1355.687 323.546 -1356.022 321.906 -1355.144 C 320.267 -1354.267 319.422 -1352.396 319.848 -1350.586 C 316.548 -1350.752 313.474 -1352.311 311.39 -1354.875 C 311.026 -1354.248 310.834 -1353.536 310.835 -1352.811 C 310.834 -1351.439 311.519 -1350.157 312.66 -1349.396 C 312.009 -1349.417 311.372 -1349.593 310.803 -1349.909 L 310.803 -1349.858 C 310.802 -1347.905 312.179 -1346.221 314.094 -1345.834 C 313.49 -1345.67 312.856 -1345.646 312.241 -1345.764 C 312.779 -1344.092 314.32 -1342.947 316.075 -1342.914 C 314.356 -1341.563 312.17 -1340.952 310 -1341.215 C 311.875 -1340.008 314.059 -1339.368 316.289 -1339.37 C 323.837 -1339.37 327.964 -1345.623 327.964 -1351.046 C 327.964 -1351.223 327.96 -1351.401 327.952 -1351.577 C 328.756 -1352.158 329.449 -1352.877 330 -1353.701 Z " fill="rgb(255,255,255)"/></g></svg>